<svg id="Arrow_-_Right_Circle" data-name="Arrow - Right Circle" xmlns="http://www.w3.org/2000/svg" width="40" height="40" viewBox="0 0 40 40">
  <path id="Arrow_-_Right_Circle-2" data-name="Arrow - Right Circle" d="M20,0l-.56.007A20.022,20.022,0,1,0,20,0ZM17.12,28.44a1.491,1.491,0,0,1-1.06-2.56L21.96,20l-5.9-5.881A1.492,1.492,0,0,1,16.04,12a1.5,1.5,0,0,1,1.068-.45A1.454,1.454,0,0,1,18.16,12l6.98,6.941a1.5,1.5,0,0,1,0,2.12L18.16,28A1.4,1.4,0,0,1,17.12,28.44Z" transform="translate(40 40) rotate(180)" fill="rgba(6,18,46,0.24)" opacity="0.543"/>
</svg>
