<svg id="Work" xmlns="http://www.w3.org/2000/svg" width="23.727" height="22.003" viewBox="0 0 23.727 22.003">
  <path id="Work-2" data-name="Work" d="M4.712,22A4.383,4.383,0,0,1,.2,17.77L.119,12.088A.226.226,0,0,1,.225,11.9a.161.161,0,0,1,.084-.022.257.257,0,0,1,.141.045,21.242,21.242,0,0,0,8.309,2.9.923.923,0,0,0,.117.007.885.885,0,0,0,.856-.609A2.141,2.141,0,0,1,11.846,12.7h.036a2.141,2.141,0,0,1,2.112,1.515.886.886,0,0,0,.857.609.918.918,0,0,0,.116-.007,21.242,21.242,0,0,0,8.309-2.9l.047-.023a.232.232,0,0,1,.1-.021.166.166,0,0,1,.083.021.226.226,0,0,1,.107.189l-.1,5.682A4.383,4.383,0,0,1,19,22Zm6.256-6.874v1.438a.864.864,0,0,0,.889.835.854.854,0,0,0,.89-.835V15.129a.865.865,0,0,0-.89-.836A.875.875,0,0,0,10.968,15.129Zm4.275-2.286a3.985,3.985,0,0,0-3.385-1.814A4.054,4.054,0,0,0,8.45,12.836a.393.393,0,0,1-.328.182.365.365,0,0,1-.066-.006,19.258,19.258,0,0,1-6.667-2.5L.249,9.782A.312.312,0,0,1,.1,9.514C.061,8.956,0,7.137,0,7.119A4.395,4.395,0,0,1,4.522,2.874H6.86A3.449,3.449,0,0,1,10.327,0h3.062a3.448,3.448,0,0,1,3.466,2.874h2.35a4.395,4.395,0,0,1,4.522,4.245c0,.01-.07,1-.1,2.369a.355.355,0,0,1-.153.281c-.558.382-1.089.712-1.14.736a19.01,19.01,0,0,1-6.7,2.517.386.386,0,0,1-.067.006A.391.391,0,0,1,15.243,12.843ZM8.665,2.874h6.386a1.7,1.7,0,0,0-1.661-1.2H10.327A1.7,1.7,0,0,0,8.665,2.874Z" fill="#7134d2"/>
</svg>
