<svg xmlns="http://www.w3.org/2000/svg" width="20" height="18" viewBox="0 0 20 18">
  <g id="Iconly_Bold_Message" data-name="Iconly Bold Message" transform="translate(-310 -308.904)">
    <g id="Message">
      <path id="Message-2" d="M324.939,326.9H315.06a5.062,5.062,0,0,1-5.06-5.05v-7.9a5.062,5.062,0,0,1,5.06-5.05h9.879a5.094,5.094,0,0,1,3.58,1.481A5.012,5.012,0,0,1,330,313.954v7.9A5.061,5.061,0,0,1,324.939,326.9Zm-10.9-12.754a.732.732,0,0,0-.534.224.764.764,0,0,0-.071,1l.131.13,4.55,3.55a3.125,3.125,0,0,0,1.95.68,3.182,3.182,0,0,0,1.958-.68l4.512-3.61.08-.08a.773.773,0,0,0-.012-1,.829.829,0,0,0-.528-.26h-.042a.762.762,0,0,0-.519.2L321,317.9a1.567,1.567,0,0,1-1,.36,1.592,1.592,0,0,1-1-.36l-4.5-3.6A.782.782,0,0,0,314.034,314.15Z" fill="#fff"/>
    </g>
  </g>
</svg>
