<svg id="noun-publication-4312502" xmlns="http://www.w3.org/2000/svg" width="25.752" height="31" viewBox="0 0 25.752 31">
  <path id="Path_43422" data-name="Path 43422" d="M496.72,22.4v3.847h3.847Z" transform="translate(-475.304 -21.909)" fill="#7134d2"/>
  <path id="Path_43423" data-name="Path 43423" d="M247.5,19.965a.807.807,0,0,1-.815-.815V14H234.492a1.53,1.53,0,0,0-1.532,1.532V31.244a7.707,7.707,0,0,1,7.693,7.693v.326h10.464a1.53,1.53,0,0,0,1.532-1.532V19.965Zm-10.268-1.63h5.541a.815.815,0,0,1,0,1.63H237.23a.815.815,0,1,1,0-1.63Zm11.116,16.592h-5.737a.815.815,0,0,1,0-1.63h5.77a.807.807,0,0,1,.815.815A.881.881,0,0,1,248.346,34.927Zm0-4.987H237.23a.815.815,0,1,1,0-1.63h11.116a.807.807,0,0,1,.815.815A.828.828,0,0,1,248.346,29.94Zm0-4.987H237.23a.815.815,0,1,1,0-1.63h11.116a.815.815,0,0,1,0,1.63Z" transform="translate(-226.897 -14)" fill="#7134d2"/>
  <path id="Path_43424" data-name="Path 43424" d="M134.863,338.24a6.063,6.063,0,1,0,6.063,6.063A6.052,6.052,0,0,0,134.863,338.24Zm3,5.053-3.129,3.129a.868.868,0,0,1-1.173,0l-1.728-1.728a.83.83,0,0,1,1.174-1.173l1.141,1.141,2.575-2.575a.826.826,0,0,1,1.173,0,.9.9,0,0,1-.033,1.206Z" transform="translate(-128.8 -319.366)" fill="#7134d2"/>
</svg>
