<svg xmlns="http://www.w3.org/2000/svg" width="31.875" height="26.579" viewBox="0 0 31.875 26.579">
  <path id="Path_44659" data-name="Path 44659" d="M-4031.366,26.579c-.736-.267-.873-.464-.873-1.26,0-1.327,0-2.655,0-3.982a.506.506,0,0,0-.218-.466,1.838,1.838,0,0,1-.03-2.908.6.6,0,0,0,.249-.543c-.007-2.271,0-4.542-.01-6.813a.353.353,0,0,1,.292-.413c.521-.161,1.032-.359,1.582-.555v.371q0,3.733,0,7.466a.515.515,0,0,0,.222.461,1.847,1.847,0,0,1-.026,2.951.448.448,0,0,0-.195.413c.006,1.338,0,2.675,0,4.013,0,.793-.139.994-.871,1.262Zm-14.562-7.948a18.109,18.109,0,0,1-5.06-1.066,5.834,5.834,0,0,1-1.757-.976,1.828,1.828,0,0,1-.7-1.522c.019-.57,0-1.14,0-1.711,0-.622.012-1.244-.005-1.866-.008-.28.073-.3.316-.215,2.641.947,5.288,1.876,7.926,2.829a3.223,3.223,0,0,0,2.274,0c2.631-.946,5.266-1.877,7.9-2.814.337-.12.338-.119.338.228,0,1.182-.012,2.364,0,3.546a1.86,1.86,0,0,1-.7,1.523,6.7,6.7,0,0,1-2.4,1.207,20.44,20.44,0,0,1-6.18.913Q-4044.943,18.709-4045.928,18.631Zm1.354-6.288q-7.329-2.616-14.665-5.211a1.214,1.214,0,0,1-.761-.714V5.983a1.285,1.285,0,0,1,.878-.756q7.284-2.555,14.56-5.135a1.427,1.427,0,0,1,1,0q7.307,2.583,14.617,5.159c.694.245.981.77.736,1.328a1.147,1.147,0,0,1-.762.587q-3.3,1.165-6.586,2.338-4,1.419-7.991,2.842a1.5,1.5,0,0,1-.511.094A1.514,1.514,0,0,1-4044.574,12.343Z" transform="translate(4060 0)" fill="#7134d2"/>
</svg>
