<svg xmlns="http://www.w3.org/2000/svg" width="23.084" height="24.639" viewBox="0 0 23.084 24.639">
  <path id="Path_43427" data-name="Path 43427" d="M-4048.7-1629.38a.311.311,0,0,1-.184-.338c0-.31-.009-.619,0-.928.006-.169-.044-.223-.218-.221-.741.009-1.482.007-2.223,0a1.31,1.31,0,0,1-1.387-1.4q0-2.5,0-5.009a1.306,1.306,0,0,1,1.365-1.37c.863,0,1.727,0,2.59,0s1.727,0,2.59,0a1.306,1.306,0,0,1,1.37,1.366q.006,2.5,0,5.009a1.279,1.279,0,0,1-1.41,1.389,1.53,1.53,0,0,0-1.516.662,6.276,6.276,0,0,1-.648.7c-.072.075-.143.155-.247.155A.239.239,0,0,1-4048.7-1629.38Zm-1.678-6.4a1.334,1.334,0,0,0,.192,1.442,5.575,5.575,0,0,0,1.6,1.41.206.206,0,0,0,.248.009,5.49,5.49,0,0,0,1.645-1.468,1.364,1.364,0,0,0,.288-.838,1.193,1.193,0,0,0-.732-1.136,1.03,1.03,0,0,0-1.234.373c-.114.135-.131.03-.182-.03a1.127,1.127,0,0,0-.852-.418A1.091,1.091,0,0,0-4050.379-1635.78Zm-4.186.764a.371.371,0,0,1-.234-.367c0-.456-.016-.913,0-1.369.009-.226-.072-.268-.278-.266-1.035.01-2.07.009-3.1,0a1.757,1.757,0,0,1-1.817-1.824q-.005-3.423,0-6.846a1.761,1.761,0,0,1,1.812-1.805c1.19,0,2.38,0,3.57,0q1.748,0,3.5,0a1.772,1.772,0,0,1,1.87,1.873c0,2.062,0,4.124.009,6.186,0,.2-.041.264-.251.259-.6-.015-1.206-.006-1.809-.005a1.849,1.849,0,0,0-1.951,1.947c0,.041,0,.082,0,.122-.005.342.1.744-.043,1.01a5.131,5.131,0,0,1-.916,1.006.315.315,0,0,1-.227.106A.322.322,0,0,1-4054.566-1635.017Zm-1.925-5.559c.037.1-.048.247-.08.373-.01.039-.023.078-.033.117a.486.486,0,0,0,.322.6.472.472,0,0,0,.586-.346c.067-.218.13-.436.186-.657.026-.1.07-.154.182-.151.244.006.488,0,.761,0-.057.2-.106.366-.148.531a.486.486,0,0,0,.322.622.484.484,0,0,0,.594-.373c.059-.2.111-.408.163-.613a.189.189,0,0,1,.22-.171,3.283,3.283,0,0,0,.513-.006.471.471,0,0,0,.411-.471.49.49,0,0,0-.405-.456.637.637,0,0,0-.153,0c-.1.011-.2.021-.228-.051-.047-.107.047-.276.082-.418.022-.087.05-.172.075-.257.128-.437.128-.437.592-.444a1.224,1.224,0,0,0,.171-.01.447.447,0,0,0,.376-.443.468.468,0,0,0-.366-.48.448.448,0,0,0-.14,0c-.09.01-.176.019-.208-.064-.038-.1.048-.246.081-.372.008-.031.021-.061.03-.093a.49.49,0,0,0-.332-.637.486.486,0,0,0-.58.391q-.088.3-.17.611c-.025.092-.054.164-.175.159-.211-.008-.424-.006-.635,0-.122,0-.135-.046-.1-.148.044-.131.082-.264.113-.4a.483.483,0,0,0-.335-.614.486.486,0,0,0-.576.366c-.04.124-.069.251-.1.376-.115.416-.115.416-.536.417h-.062a1.473,1.473,0,0,0-.207.007.465.465,0,0,0-.4.48.463.463,0,0,0,.408.445.748.748,0,0,0,.171.005c.185-.021.258.03.184.228-.06.159-.09.329-.136.493-.123.441-.124.44-.593.444h-.038a.98.98,0,0,0-.109,0,.475.475,0,0,0-.414.443.489.489,0,0,0,.37.483.427.427,0,0,0,.142,0c.027,0,.054-.005.079-.005A.119.119,0,0,1-4056.49-1640.576Zm12.673,2.973a.476.476,0,0,1-.35-.5c0-.628-.01-1.255,0-1.883,0-.207-.061-.26-.261-.259-1.312.009-2.624,0-3.937.011-.212,0-.248-.07-.248-.264q.01-2.58,0-5.16a2.388,2.388,0,0,0-1.124-2.1,2.4,2.4,0,0,0-1.029-.354c-.14-.019-.19-.054-.189-.205.007-1.149-.007-2.3.008-3.448a2.307,2.307,0,0,1,1.812-2.184c.063-.014.124-.035.186-.053h10.026c.053.017.106.036.16.05a2.3,2.3,0,0,1,1.771,1.724c.026.093.05.187.074.28v9.635c-.032.125-.061.25-.1.374a2.289,2.289,0,0,1-2.1,1.691c-.553.026-1.108.021-1.662.01a.48.48,0,0,0-.4.175c-.706.757-1.418,1.508-2.129,2.26a.555.555,0,0,1-.387.221A.4.4,0,0,1-4043.817-1637.6Zm0-13.552c-.007.252-.01.506,0,.758a.542.542,0,0,1-.14.4c-.471.563-.97,1.1-1.465,1.641a.351.351,0,0,0-.137.246q0,2.115,0,4.229a.165.165,0,0,0,.12.183,11.054,11.054,0,0,0,1.063.359,5.461,5.461,0,0,0,1.378.1c.212,0,.416-.008.608,0h1.6a.861.861,0,0,0,.774-1.248.177.177,0,0,1,.036-.244.824.824,0,0,0,.142-.992c-.04-.082-.059-.126.018-.2a.822.822,0,0,0,.151-1.049.113.113,0,0,1,.029-.163.816.816,0,0,0,.2-.982.876.876,0,0,0-.892-.515c-.257,0-.514,0-.772,0-.289,0-.577,0-.865,0-.187,0-.243-.03-.174-.223a2.832,2.832,0,0,0,.2-1.41,1.533,1.533,0,0,0-1.45-1.285h0A.369.369,0,0,0-4043.817-1651.155Zm-2.433,7.752c.153,0,.19-.05.19-.2q-.007-2.5,0-5.009c0-.164-.049-.207-.206-.2-.546.008-1.092.01-1.637,0-.176,0-.216.054-.215.221.008.831,0,1.661,0,2.492s0,1.661,0,2.492c0,.165.051.208.207.206q.416-.005.832-.005T-4046.25-1643.4Zm-8.874,1.793c-.149-.136.058-.419.111-.636.121-.5.129-.5.643-.5h.393c-.1.365-.2.691-.282,1.018-.027.1-.071.151-.182.147a1.986,1.986,0,0,0-.246.013c-.073.007-.146.014-.212.014A.331.331,0,0,1-4055.125-1641.609Z" transform="translate(4060 1654)" fill="#fff"/>
</svg>
