<svg xmlns="http://www.w3.org/2000/svg" width="63" height="63" viewBox="0 0 63 63">
  <g id="Linkedin" transform="translate(-18.5 -998.5)">
    <rect id="Rectangle_2235" data-name="Rectangle 2235" width="63" height="63" rx="14" transform="translate(18.5 998.5)" fill="#0a66c2"/>
    <path id="linkedin-in" d="M5.586,24.965H.412V8.3H5.586ZM3,6.031a3.011,3.011,0,1,1,3-3.025A3.022,3.022,0,0,1,3,6.031ZM24.95,24.965H19.787v-8.11c0-1.933-.039-4.412-2.69-4.412-2.69,0-3.1,2.1-3.1,4.272v8.25H8.827V8.3h4.962v2.273h.072a5.436,5.436,0,0,1,4.9-2.69c5.236,0,6.2,3.448,6.2,7.927v9.152Z" transform="translate(37 1016.99)" fill="#fff"/>
  </g>
</svg>
