<svg xmlns="http://www.w3.org/2000/svg" width="63" height="63" viewBox="0 0 63 63">
  <g id="Twitter" transform="translate(-18.5 -998.5)">
    <rect id="Rectangle_2235" data-name="Rectangle 2235" width="63" height="63" rx="14" transform="translate(18.5 998.5)" fill="#47acdf"/>
    <path id="Path_43419" data-name="Path 43419" d="M84.08,477.762A16.8,16.8,0,0,1,75,475.113c2.226.144,6.156-.2,8.6-2.532a5.846,5.846,0,0,1-5.551-4.193,5.211,5.211,0,0,0,2.643-.072,5.867,5.867,0,0,1-4.734-5.9,4.951,4.951,0,0,0,2.667.7,5.935,5.935,0,0,1-1.826-7.977,15.009,15.009,0,0,0,12.31,6.241A6.032,6.032,0,0,1,94.965,454a5.983,5.983,0,0,1,4.392,1.914,14.665,14.665,0,0,0,3.754-1.457,6.249,6.249,0,0,1-2.576,3.306h0a11.1,11.1,0,0,0,3.393-.992,10.08,10.08,0,0,1-2.957,3.113C101.187,469.433,93.882,477.762,84.08,477.762Z" transform="translate(-39.464 564.619)" fill="#fefefe"/>
  </g>
</svg>
