<svg id="Work" xmlns="http://www.w3.org/2000/svg" width="17.709" height="16.422" viewBox="0 0 17.709 16.422">
  <path id="Work-2" data-name="Work" d="M3.517,16.422A3.272,3.272,0,0,1,.151,13.263L.088,9.022a.168.168,0,0,1,.08-.141.12.12,0,0,1,.063-.016A.192.192,0,0,1,.336,8.9a15.855,15.855,0,0,0,6.2,2.162.689.689,0,0,0,.088.005.661.661,0,0,0,.639-.454A1.6,1.6,0,0,1,8.841,9.479h.027a1.6,1.6,0,0,1,1.576,1.131.661.661,0,0,0,.64.454.685.685,0,0,0,.087-.005,15.855,15.855,0,0,0,6.2-2.162l.035-.017a.173.173,0,0,1,.071-.016.124.124,0,0,1,.062.016.168.168,0,0,1,.08.141l-.071,4.241a3.272,3.272,0,0,1-3.366,3.159Zm4.669-5.13v1.073a.645.645,0,0,0,.664.623.638.638,0,0,0,.665-.623V11.292a.646.646,0,0,0-.665-.624A.653.653,0,0,0,8.186,11.292Zm3.191-1.706A2.974,2.974,0,0,0,8.851,8.232,3.026,3.026,0,0,0,6.307,9.581a.294.294,0,0,1-.245.136.273.273,0,0,1-.049,0A14.374,14.374,0,0,1,1.037,7.85L.186,7.3a.233.233,0,0,1-.115-.2C.045,6.684,0,5.327,0,5.314A3.28,3.28,0,0,1,3.375,2.145H5.12A2.574,2.574,0,0,1,7.708,0H9.994A2.573,2.573,0,0,1,12.58,2.145h1.754a3.28,3.28,0,0,1,3.375,3.168c0,.007-.053.75-.071,1.768a.265.265,0,0,1-.114.21c-.417.285-.813.531-.851.549a14.189,14.189,0,0,1-5,1.879.288.288,0,0,1-.05,0A.292.292,0,0,1,11.377,9.586Zm-4.91-7.44h4.766a1.267,1.267,0,0,0-1.24-.9H7.708A1.268,1.268,0,0,0,6.467,2.145Z" fill="#4b70f8"/>
</svg>
